<?xml version="1.0" standalone="no"?>
<!DOCTYPE svg PUBLIC "-//W3C//DTD SVG 20010904//EN"
 "http://www.w3.org/TR/2001/REC-SVG-20010904/DTD/svg10.dtd">
<svg version="1.0" xmlns="http://www.w3.org/2000/svg"
 width="260.000000pt" height="260.000000pt" viewBox="0 0 260.000000 260.000000"
 preserveAspectRatio="xMidYMid meet">
<metadata>
Created by potrace 1.11, written by Peter Selinger 2001-2013
</metadata>
<g transform="translate(0.000000,260.000000) scale(0.100000,-0.100000)"
fill="#000000" stroke="none">
<path d="M0 1300 l0 -1300 1300 0 1300 0 0 1300 0 1300 -1300 0 -1300 0 0
-1300z m796 719 l23 -21 13 21 c10 17 23 21 60 21 l48 0 0 -70 0 -70 -65 0
c-58 0 -65 2 -65 20 0 19 -7 20 -110 20 l-110 0 0 -35 0 -35 143 0 142 -1 48
-44 c46 -42 47 -45 47 -101 0 -56 -2 -60 -47 -106 l-47 -48 -160 0 c-146 0
-162 2 -181 20 l-22 20 -18 -20 c-13 -14 -31 -20 -62 -20 l-43 0 0 75 0 76 63
-3 c56 -3 62 -5 65 -25 3 -22 7 -23 123 -23 l119 0 0 35 0 35 -141 0 -142 0
-43 36 c-44 35 -44 35 -44 102 0 66 0 67 47 114 l47 48 145 0 c133 0 146 -2
167 -21z m494 -39 c0 -53 -2 -60 -20 -60 -19 0 -20 -7 -20 -115 l0 -115 75 0
75 0 0 115 c0 96 -3 115 -15 115 -12 0 -15 13 -15 60 l0 60 110 0 110 0 0 -60
c0 -53 -2 -60 -20 -60 -19 0 -20 -7 -20 -122 l0 -122 -52 -53 -52 -53 -140 0
-140 0 -53 52 -53 52 0 123 0 123 -25 0 c-24 0 -25 3 -25 60 l0 60 140 0 140
0 0 -60z m882 23 c37 -36 38 -39 38 -107 0 -65 -2 -72 -32 -103 l-32 -33 -138
0 -138 0 0 -35 c0 -31 3 -35 25 -35 24 0 25 -3 25 -60 l0 -60 -145 0 -145 0 0
60 c0 57 1 60 25 60 l25 0 0 115 0 115 -25 0 c-24 0 -25 3 -25 60 l0 60 252 0
252 0 38 -37z m-1229 -491 c25 -26 27 -35 27 -110 l0 -82 -75 0 -75 0 0 45 0
45 -100 0 -100 0 0 -30 c0 -29 2 -30 45 -30 l45 0 0 -44 0 -45 -42 -3 c-40 -3
-43 -5 -46 -35 l-3 -33 100 0 100 0 3 48 3 47 73 3 72 3 0 -84 c0 -70 -3 -89
-21 -111 l-20 -26 -270 0 -269 0 0 60 c0 57 1 60 25 60 l25 0 0 110 0 110 -25
0 c-24 0 -25 2 -25 65 l0 65 263 0 263 0 27 -28z m565 -15 c37 -38 42 -48 42
-89 0 -41 -4 -49 -36 -73 l-36 -27 36 -26 c32 -22 36 -30 36 -69 0 -36 3 -43
20 -43 17 0 20 -7 20 -50 l0 -50 -92 0 c-86 0 -94 2 -120 27 -25 24 -28 33
-28 95 l0 68 -50 0 -50 0 0 -35 c0 -24 5 -35 15 -35 12 0 15 -13 15 -60 l0
-60 -135 0 -135 0 0 60 c0 57 1 60 25 60 l25 0 0 110 0 110 -25 0 c-24 0 -25
2 -25 65 l0 65 228 0 228 0 42 -43z m540 21 l24 -23 15 23 c13 18 25 22 69 22
l54 0 0 -100 0 -100 -70 0 -70 0 0 35 0 35 -125 0 -125 0 0 -110 0 -110 125 0
125 0 0 40 0 40 70 0 70 0 0 -52 c0 -49 -3 -55 -47 -100 l-47 -48 -186 0 -186
0 -57 58 -57 58 0 114 0 114 62 63 62 63 135 0 c126 0 136 -1 159 -22z m-1105
-516 c25 -26 27 -35 27 -110 l0 -82 -75 0 -75 0 0 50 0 51 -97 -3 -98 -3 -3
-32 c-3 -33 -3 -33 42 -33 l46 0 0 -45 0 -45 -45 0 c-45 0 -45 0 -45 -35 l0
-35 99 0 100 0 3 48 3 47 73 3 72 3 0 -83 c-1 -73 -3 -86 -25 -110 l-24 -28
-266 0 -265 0 0 60 c0 58 1 60 25 60 l26 0 -3 113 c-3 108 -4 112 -25 115 -21
3 -23 9 -23 63 l0 59 263 0 263 0 27 -28z m357 -32 c0 -57 -1 -60 -25 -60
l-25 0 0 -115 0 -115 100 0 100 0 0 75 0 75 70 0 70 0 0 -109 c0 -94 -3 -112
-21 -135 l-20 -26 -270 0 -269 0 0 60 c0 57 1 60 25 60 l25 0 0 115 0 115 -25
0 c-24 0 -25 3 -25 60 l0 60 145 0 145 0 0 -60z m620 0 c0 -57 -1 -60 -25 -60
l-25 0 0 -115 0 -115 100 0 100 0 0 75 0 75 70 0 70 0 0 -112 c0 -168 21 -158
-312 -158 l-268 0 0 60 c0 57 1 60 25 60 l25 0 0 115 0 115 -25 0 c-24 0 -25
3 -25 60 l0 60 145 0 145 0 0 -60z"/>
<path d="M1870 1880 l0 -40 80 0 80 0 0 40 0 40 -80 0 -80 0 0 -40z"/>
<path d="M1250 1375 l0 -35 50 0 50 0 0 35 0 35 -50 0 -50 0 0 -35z"/>
</g>
</svg>
