<svg xmlns="http://www.w3.org/2000/svg" width="285" height="255" viewBox="0 0 285 255">
    <g fill="none" fill-rule="evenodd">
        <path fill="#C78738" d="M0 0H285V255H0z"/>
        <path fill="#FFF" fill-rule="nonzero" d="M58.236 119.367l1.53-4.632h8.62l1.53 4.632h5.236L66.815 95.2h-5.438L53 119.367h5.236zm8.579-9.344h-5.478l2.739-8.337 2.739 8.337zm33.146 9.545c.591 0 1.088-.054 1.49-.161.403-.107.846-.336 1.33-.685.402-.268.872-.67 1.41-1.208.536-.537.952-1.02 1.248-1.45.349-.483.577-.926.685-1.329.107-.403.16-.9.16-1.49v-8.055h-10.43v4.591h5.517v3.585c0 .08-.228.349-.685.805-.456.457-.725.685-.805.685h-5.92c-.081 0-.35-.228-.806-.685-.457-.456-.685-.725-.685-.805v-12.164c0-.08.228-.349.685-.805.456-.457.725-.685.805-.685h6.001c.698.457 1.383 1.29 2.054 2.497l4.592-1.208c-.322-.913-.779-1.785-1.37-2.618-.617-.886-1.376-1.671-2.275-2.356-.9-.685-1.9-1.027-3-1.027H93.88c-.591 0-1.088.054-1.49.161-.403.108-.846.336-1.33.685-.402.268-.872.671-1.41 1.208-.536.537-.952 1.02-1.248 1.45-.349.483-.577.926-.684 1.33-.108.402-.162.899-.162 1.49v11.92c0 .592.054 1.088.162 1.491.107.403.335.846.684 1.33.296.402.705.872 1.229 1.409.523.537 1 .953 1.43 1.248.483.35.926.578 1.329.685.402.107.899.161 1.49.161h6.081zm22.353 0c.591 0 1.088-.054 1.49-.161.403-.107.846-.336 1.33-.685.402-.268.872-.67 1.41-1.208.536-.537.952-1.02 1.248-1.45.349-.483.577-.926.684-1.329.108-.403.162-.9.162-1.49V95.2h-4.914v18.165c0 .08-.228.349-.685.805-.456.457-.725.685-.805.685h-5.478c-.08 0-.349-.228-.805-.685-.457-.456-.685-.725-.685-.805V95.2h-4.914v18.044c0 .59.054 1.087.162 1.49.107.403.335.846.684 1.33.296.402.705.872 1.229 1.409.523.537 1 .953 1.43 1.248.483.35.926.578 1.329.685.402.107.899.161 1.49.161h5.638zm15.305-.201V95.2h-4.954v24.166h4.954zm16.11 0c.591 0 1.088-.054 1.49-.161.403-.108.846-.336 1.33-.685.402-.269.872-.671 1.41-1.208.536-.537.952-1.02 1.248-1.45.349-.484.577-.927.684-1.33.108-.402.162-.899.162-1.49v-11.518c0-.591-.054-1.088-.162-1.49-.107-.403-.335-.846-.684-1.33-.296-.402-.705-.872-1.229-1.41-.523-.536-1-.952-1.43-1.248-.483-.349-.926-.577-1.329-.685-.402-.107-.899-.16-1.49-.16h-12.082v24.165h12.082zm-.08-4.713h-7.089v-14.74h7.089c.08 0 .349.228.805.684.457.457.685.725.685.806v11.76c0 .08-.228.35-.685.806-.456.456-.725.684-.805.684zm26.018 4.713v-4.713h-10.955v-5.074h10.592v-4.712h-10.592v-4.954h10.955V95.2h-15.869v24.166h15.869zm24.447 0V99.914h6.484V95.2h-17.963v4.713h6.525v19.453h4.954zm21.588.201c.59 0 1.087-.054 1.49-.161.403-.107.846-.336 1.329-.685.403-.268.873-.67 1.41-1.208.537-.537.953-1.02 1.248-1.45.35-.483.577-.926.685-1.329.107-.403.161-.9.161-1.49v-11.922c0-.59-.054-1.087-.161-1.49-.108-.403-.336-.846-.685-1.329-.295-.403-.705-.873-1.228-1.41-.524-.537-1-.953-1.43-1.248-.483-.35-.926-.577-1.33-.685-.402-.107-.899-.161-1.49-.161h-6.04c-.591 0-1.088.054-1.49.161-.404.108-.847.336-1.33.685-.403.268-.873.671-1.41 1.208-.537.537-.953 1.02-1.248 1.45-.35.483-.577.926-.685 1.33-.107.402-.16.899-.16 1.49v11.92c0 .592.053 1.088.16 1.491.108.403.336.846.685 1.33.295.402.705.872 1.228 1.409.524.537 1 .953 1.43 1.248.483.35.926.578 1.33.685.402.107.899.161 1.49.161h6.04zm-.08-4.712h-5.881c-.08 0-.35-.228-.806-.685-.456-.456-.684-.725-.684-.805v-12.164c0-.08.228-.349.684-.805.457-.457.725-.685.806-.685h5.88c.08 0 .35.228.806.685.456.456.684.725.684.805v12.164c0 .08-.228.349-.684.805-.457.457-.725.685-.806.685zM59.322 159.642v-9.787h10.391v-4.712h-10.39v-4.954h10.954v-4.712H54.41v24.165h4.913zm19.534 0v-24.165h-4.954v24.165h4.954zm8.941 0v-14.298l7.814 14.298h4.953v-24.165h-4.913v14.5l-7.733-14.5h-5.035v24.165h4.914zm32.422 0v-4.752h-10.713v-19.413h-4.914v24.165h15.627zm7.008 0l1.53-4.631h8.62l1.53 4.631h5.236l-8.337-24.165h-5.438l-8.377 24.165h5.236zm8.579-9.344h-5.478l2.739-8.337 2.739 8.337zm15.868 9.344v-14.298l7.814 14.298h4.954v-24.165h-4.914v14.5l-7.733-14.5h-5.034v24.165h4.913zm28.878 0c.59 0 1.087-.053 1.49-.16.403-.108.846-.336 1.33-.685.402-.269.872-.672 1.409-1.209s.953-1.02 1.248-1.45c.35-.483.578-.926.685-1.329.107-.403.161-.9.161-1.49V141.8c0-.59-.054-1.087-.161-1.49-.107-.403-.336-.846-.685-1.33-.295-.402-.705-.872-1.228-1.409-.524-.537-1-.953-1.43-1.248-.483-.35-.926-.578-1.329-.685-.403-.107-.9-.161-1.49-.161H168.47v24.165h12.083zm-.08-4.712h-7.09v-14.74h7.09c.08 0 .348.227.805.684.456.456.684.725.684.805v11.76c0 .081-.228.35-.684.806-.457.457-.725.685-.806.685z"/>
    </g>
</svg>
